<?xml version="1.0" encoding="utf-8"?>
<!-- Generator: Adobe Illustrator 16.0.0, SVG Export Plug-In . SVG Version: 6.00 Build 0)  -->
<!DOCTYPE svg PUBLIC "-//W3C//DTD SVG 1.1//EN" "http://www.w3.org/Graphics/SVG/1.1/DTD/svg11.dtd">
<svg version="1.1" id="Livello_1" xmlns="http://www.w3.org/2000/svg" xmlns:xlink="http://www.w3.org/1999/xlink" x="0px" y="0px"
	 width="602px" height="193px" viewBox="121.445 172.14 602 193" enable-background="new 121.445 172.14 602 193"
	 xml:space="preserve">
<g>
	<g>
		<path d="M145.98,282.557v58.378c0.096,5.451,1.277,8.803,3.545,10.057c1.013,0.676,2.17,1.133,3.472,1.373
			c1.061,0.291,2.146,0.436,3.256,0.436c3.23,0,5.4-0.145,6.511-0.436v2.967c-0.387,0-0.796,0.012-1.23,0.037
			c-0.434,0.023-0.868,0.061-1.302,0.107c-0.82,0.193-2.412,0.289-4.774,0.289c-3.425,0-6.318-1.037-8.681-3.109
			c-1.158-1.305-2.002-2.773-2.532-4.414c-0.82-1.881-1.229-4.123-1.229-6.729v-58.956H128.98v-2.966h14.034v-22.426l2.966-1.52
			v23.945h17.217v2.966L145.98,282.557L145.98,282.557z"/>
		<path d="M173.614,250.003h2.966v48.396h0.289c1.447-5.979,4.558-10.898,9.332-14.758c4.678-3.809,10.706-5.738,18.085-5.787
			c8.149,0,14.66,2.314,19.532,6.944c4.919,4.728,7.426,11.551,7.523,20.473v50.492h-2.967v-50.059
			c-0.048-8.729-2.412-15.095-7.089-19.099c-4.679-3.857-10.345-5.787-17-5.787c-9.163,0.242-16.035,3.4-20.617,9.477
			c-4.727,6.27-7.089,13.721-7.089,22.354v43.113h-2.966v-105.76H173.614z"/>
		<path d="M246.171,318.292c0.048,10.418,2.411,19.002,7.09,25.754c4.726,6.992,12.394,10.514,23.004,10.563
			c16.493-0.049,26.404-8.465,29.731-25.248h2.966c-1.157,8.826-4.605,15.697-10.345,20.617c-5.884,5.018-13.237,7.547-22.063,7.596
			c-11.671-0.098-20.11-3.906-25.318-11.43c-5.451-7.426-8.127-16.902-8.03-28.43c0.192-12.877,3.665-22.715,10.417-29.515
			c6.462-6.896,14.106-10.345,22.932-10.345c11.864,0.242,20.496,4.341,25.897,12.298c5.449,7.957,7.933,17.338,7.451,28.141
			H246.171L246.171,318.292z M306.937,315.326c0.097-9.74-2.387-17.892-7.451-24.45c-5.161-6.655-12.708-10.007-22.642-10.056
			c-8.296,0.049-15.313,3.11-21.052,9.188c-5.643,6.076-8.85,14.517-9.621,25.318H306.937L306.937,315.326z"/>
		<path d="M318.801,260.493c0-2.218,0.047-4.051,0.145-5.498c0.096-1.447,0.566-2.568,1.41-3.363
			c0.844-0.797,2.243-1.35,4.196-1.664c1.953-0.313,4.785-0.471,8.5-0.471c0.819,0,1.663,0,2.531,0s1.833,0.025,2.894,0.072
			c0.771,0.049,1.579,0.085,2.424,0.109c0.843,0.024,1.747,0.035,2.713,0.035c0.724,0,1.458,0,2.207,0
			c0.746,0,1.529,0.025,2.35,0.072c1.254,0.049,2.689,0.086,4.305,0.109c1.615,0.024,3.172,0.061,4.666,0.107
			c2.605,0.049,5.197,0.254,7.777,0.615c2.578,0.361,5.291,0.953,8.139,1.772c2.65,0.917,5.268,2.134,7.848,3.653
			c2.58,1.519,4.906,3.195,6.98,5.027c2.316,2.074,4.377,4.475,6.186,7.198c1.809,2.726,3.34,5.775,4.594,9.151
			c2.652,6.944,4.002,15.457,4.051,25.536c-0.098,9.26-1.447,17.266-4.051,24.018s-6.414,12.25-11.43,16.492
			c-9.742,8.199-21.221,12.299-34.434,12.299h-29.877c-1.206,0-2.195-0.396-2.966-1.193c-0.772-0.795-1.157-1.748-1.157-2.857
			L318.801,260.493L318.801,260.493z M329.651,344.914h23.8c5.498,0,10.49-0.855,14.975-2.568c4.484-1.711,8.584-4.277,12.299-7.703
			c3.664-3.328,6.412-7.633,8.246-12.914c1.832-5.279,2.797-11.586,2.893-18.916c0-2.121-0.072-4.195-0.217-6.221
			s-0.338-4.003-0.578-5.933c-0.242-1.688-0.543-3.267-0.904-4.737c-0.361-1.47-0.809-2.905-1.338-4.305v0.072
			c-0.965-2.651-2.146-5.039-3.545-7.161c-1.399-2.122-2.869-3.954-4.412-5.499c-1.641-1.397-3.414-2.65-5.318-3.761
			c-1.904-1.108-3.846-2.001-5.822-2.677c-2.025-0.578-4.195-1.013-6.512-1.303c-2.313-0.289-4.629-0.434-6.943-0.434
			c-3.232,0-6.15-0.012-8.754-0.036c-2.604-0.023-4.944-0.06-7.017-0.108c-1.352-0.047-2.558-0.072-3.617-0.072
			c-1.062,0-2.025,0-2.894,0c-1.11,0-1.953,0.012-2.532,0.036c-0.579,0.024-1.001,0.048-1.266,0.072
			c-0.266,0.024-0.423,0.072-0.471,0.145c-0.049,0.072-0.072,0.181-0.072,0.325L329.651,344.914L329.651,344.914z"/>
		<path d="M411.975,302.884c0-7.715,1.05-14.78,3.146-21.195c2.098-6.413,5.196-12.201,9.296-17.361
			c8.438-10.947,20.615-16.518,36.531-16.711c8.053,0.098,15.143,1.545,21.268,4.341c6.123,2.798,11.332,6.897,15.625,12.298
			c8.15,10.465,12.227,23.342,12.227,38.628c0,7.283-1.084,14.205-3.256,20.764c-2.17,6.559-5.137,12.395-8.896,17.506
			c-4.244,5.258-9.49,9.381-15.734,12.371c-6.246,2.988-13.322,4.531-21.23,4.629c-8.104-0.098-15.168-1.568-21.195-4.412
			c-6.029-2.846-11.117-7.02-15.264-12.516C416.145,330.857,411.975,318.076,411.975,302.884z M433.314,270.548
			c-3.328,4.1-5.885,8.826-7.668,14.179c-1.785,5.354-2.75,11.406-2.895,18.157c0.145,6.752,1.109,12.793,2.895,18.121
			c1.783,5.33,4.34,10.043,7.668,14.143c6.463,8.006,15.674,12.059,27.635,12.152c6.027-0.047,11.332-1.07,15.914-3.074
			c4.582-2,8.537-5.051,11.863-9.15c3.473-4.1,6.064-8.813,7.775-14.143c1.713-5.328,2.617-11.346,2.713-18.049
			c-0.24-13.357-3.713-24.137-10.416-32.336v0.072c-3.281-3.762-7.283-6.702-12.008-8.825c-4.729-2.122-10.008-3.23-15.844-3.327
			c-6.029,0.097-11.32,1.157-15.879,3.183C440.513,263.676,436.593,266.642,433.314,270.548z"/>
		<path d="M521.642,260.493c0-2.218,0.049-4.051,0.146-5.498c0.096-1.447,0.564-2.568,1.41-3.363
			c0.844-0.797,2.242-1.35,4.195-1.664c1.953-0.313,4.785-0.471,8.498-0.471c0.82,0,1.664,0,2.533,0
			c0.867,0,1.832,0.025,2.895,0.072c0.77,0.049,1.578,0.085,2.424,0.109c0.842,0.024,1.746,0.035,2.713,0.035
			c0.723,0,1.457,0,2.205,0s1.531,0.025,2.352,0.072c1.254,0.049,2.688,0.086,4.305,0.109c1.615,0.024,3.172,0.061,4.666,0.107
			c2.604,0.049,5.195,0.254,7.775,0.615c2.58,0.361,5.293,0.953,8.141,1.772c2.65,0.917,5.268,2.134,7.848,3.653
			c2.58,1.52,4.906,3.195,6.98,5.027c2.314,2.074,4.377,4.475,6.186,7.198c1.809,2.726,3.34,5.775,4.594,9.151
			c2.652,6.944,4.002,15.457,4.051,25.536c-0.098,9.26-1.445,17.266-4.051,24.018c-2.604,6.752-6.414,12.25-11.43,16.492
			c-9.742,8.199-21.221,12.299-34.436,12.299h-29.875c-1.207,0-2.195-0.396-2.967-1.193c-0.771-0.795-1.158-1.748-1.158-2.857
			V260.493L521.642,260.493z M532.494,344.914h23.799c5.498,0,10.49-0.855,14.975-2.568c4.484-1.711,8.584-4.277,12.299-7.703
			c3.664-3.328,6.412-7.633,8.246-12.914c1.832-5.279,2.797-11.586,2.895-18.916c0-2.121-0.072-4.195-0.217-6.221
			c-0.146-2.026-0.34-4.003-0.578-5.933c-0.242-1.688-0.543-3.267-0.904-4.737c-0.363-1.471-0.809-2.905-1.34-4.305v0.072
			c-0.965-2.651-2.146-5.039-3.545-7.161s-2.869-3.954-4.412-5.499c-1.641-1.397-3.412-2.65-5.316-3.761
			c-1.904-1.108-3.848-2.001-5.822-2.677c-2.025-0.578-4.195-1.013-6.512-1.303c-2.314-0.289-4.631-0.434-6.943-0.434
			c-3.232,0-6.15-0.012-8.754-0.036c-2.604-0.023-4.943-0.06-7.018-0.108c-1.352-0.047-2.557-0.072-3.617-0.072s-2.025,0-2.895,0
			c-1.109,0-1.953,0.012-2.531,0.036s-1.002,0.048-1.266,0.072c-0.268,0.024-0.422,0.072-0.471,0.145
			c-0.049,0.072-0.072,0.181-0.072,0.325V344.914L532.494,344.914z"/>
		<path d="M614.816,302.884c0-7.715,1.049-14.78,3.146-21.195c2.098-6.413,5.195-12.201,9.295-17.361
			c8.439-10.947,20.617-16.518,36.531-16.711c8.055,0.098,15.143,1.545,21.268,4.341c6.125,2.798,11.334,6.897,15.627,12.298
			c8.148,10.465,12.227,23.342,12.227,38.628c0,7.283-1.086,14.205-3.256,20.764s-5.137,12.395-8.898,17.506
			c-4.244,5.258-9.488,9.381-15.732,12.371c-6.246,2.988-13.322,4.531-21.232,4.629c-8.102-0.098-15.168-1.568-21.195-4.412
			c-6.027-2.846-11.117-7.02-15.264-12.516C618.986,330.857,614.816,318.076,614.816,302.884z M636.156,270.548
			c-3.328,4.1-5.885,8.826-7.668,14.179c-1.785,5.354-2.748,11.406-2.895,18.157c0.146,6.752,1.109,12.793,2.895,18.121
			c1.783,5.33,4.34,10.043,7.668,14.143c6.463,8.006,15.674,12.059,27.635,12.152c6.027-0.047,11.332-1.07,15.914-3.074
			c4.582-2,8.537-5.051,11.863-9.15c3.473-4.1,6.064-8.813,7.775-14.143c1.713-5.328,2.617-11.346,2.713-18.049
			c-0.24-13.357-3.713-24.137-10.416-32.336v0.072c-3.279-3.762-7.281-6.702-12.008-8.825c-4.729-2.122-10.008-3.23-15.844-3.327
			c-6.029,0.097-11.32,1.157-15.879,3.183C643.353,263.676,639.435,266.642,636.156,270.548z"/>
	</g>
	<g>
		<path fill="#F7941E" d="M235.797,230.908c-0.531-0.241-1.037-0.747-1.519-1.519c-0.483-0.771-0.724-1.471-0.724-2.099v-3.183
			c0-0.53,0.229-1.169,0.688-1.918c0.457-0.746,0.951-1.289,1.482-1.627l67.565-32.986c0.724-0.338,1.422-0.494,2.098-0.471
			c0.675,0.025,1.277,0.205,1.809,0.543c0.53,0.338,0.965,0.808,1.303,1.41c0.337,0.604,0.506,1.291,0.506,2.062v2.749
			c0,0.627-0.241,1.303-0.723,2.025c-0.483,0.724-1.014,1.23-1.592,1.52c-9.742,4.773-19.363,9.488-28.864,14.143
			c-9.501,4.655-19.146,9.367-28.936,14.143c9.693,4.727,19.339,9.452,28.936,14.178c9.597,4.727,19.218,9.453,28.864,14.18
			c0.578,0.289,1.108,0.808,1.592,1.555c0.481,0.748,0.723,1.41,0.723,1.989v2.821c0,0.771-0.169,1.459-0.506,2.062
			c-0.338,0.604-0.772,1.073-1.303,1.411c-0.531,0.336-1.134,0.518-1.809,0.542c-0.676,0.024-1.374-0.134-2.098-0.47
			L235.797,230.908z"/>
	</g>
	<circle cx="341.284" cy="212.904" r="11.986"/>
</g>
</svg>
